<?xml version="1.0" encoding="utf-8"?>
<!-- Generator: Adobe Illustrator 26.5.1, SVG Export Plug-In . SVG Version: 6.00 Build 0)  -->
<svg version="1.1" id="Layer_1" xmlns="http://www.w3.org/2000/svg" xmlns:xlink="http://www.w3.org/1999/xlink" x="0px" y="0px"
	 viewBox="0 0 67 67" style="enable-background:new 0 0 67 67;" xml:space="preserve">
<style type="text/css">
	.st0{fill-rule:evenodd;clip-rule:evenodd;fill:#D8D9D8;}
</style>
<g>
	<path class="st0" d="M43.4,22.6c-2.2-2.5-6.9-2.7-8.9,0.5l-1,1.7l-1-1.7c-2.1-3.2-6.7-3-8.9-0.5c-2,2.3-1.6,4.6-1.6,15.1h4v-9.8
		c0-4.3,5.5-4.4,5.5,0.6v5.4h4v-5.4c0-5,5.5-4.9,5.5-0.6v9.8h4l0,0C45,27.2,45.5,24.9,43.4,22.6z"/>
	<path class="st0" d="M33.5,1L5.4,17.2v32.5L33.5,66l28.1-16.2V17.2L33.5,1z M50.7,37.3c-0.5,2.7-4.7,5.7-9.6,6.3
		c-1.7,0.2-8,1.2-15.4-0.6c0,0.4,0,0.8,0.1,1.2c0.6,4.3,4.2,4.5,7.7,4.6c3.5,0.1,6.6-0.9,6.6-0.9l0.1,3.2c0,0-2.5,1.3-6.8,1.6
		c-2.4,0.1-5.4-0.1-8.9-1c-9.7-2.6-9.1-14.9-9.1-24.9c0-8.4,5.5-10.8,5.5-10.8c5.3-2.4,19.6-2.5,25,0c0,0,5.5,2.5,5.5,10.8
		C51.5,26.9,51.6,33.1,50.7,37.3z"/>
</g>
</svg>
