<?xml version="1.0" encoding="utf-8"?>

<svg xmlns="http://www.w3.org/2000/svg" x="0px" y="0px"
	 viewBox="0 0 67 67">
<style type="text/css">
	.st0{fill-rule:evenodd;clip-rule:evenodd;fill:#D8D9D8;}
	.st1{fill-rule:evenodd;clip-rule:evenodd;fill:#D8D9D8;fill-opacity:0.7728;}
	.st2{fill-rule:evenodd;clip-rule:evenodd;fill:#D8D9D8;fill-opacity:0.5031;}
	.st3{fill-rule:evenodd;clip-rule:evenodd;fill:#D8D9D8;fill-opacity:0.4999;}
	.st4{fill-rule:evenodd;clip-rule:evenodd;fill:#D8D9D8;fill-opacity:0.4962;}
	.st5{fill:#D8D9D8;}
</style>
<g id="Layer_3">
</g>
<g id="Layer_1">
	<g id="Rectangle">
	</g>
	<g>
		<path class="st0" d="M24.5,16.3c0,0-0.1,0-0.1,0C24.4,16.3,24.5,16.3,24.5,16.3z"/>
		<path class="st0" d="M44,15.5C44,15.5,44,15.5,44,15.5C44,15.5,44,15.5,44,15.5z"/>
		<path class="st0" d="M47.3,25.3c0-0.2,0.1-0.4,0.1-0.7C47.4,24.8,47.4,25.1,47.3,25.3z"/>
		<path class="st0" d="M48,43.6c0.1-0.1,0.3-0.1,0.4-0.2C48.3,43.5,48.2,43.6,48,43.6z"/>
		<path class="st0" d="M47.5,43.8c-0.2,0.1-0.4,0.1-0.5,0.1C47.1,43.9,47.3,43.9,47.5,43.8z"/>
		<path class="st0" d="M30.4,17.9c0.3,0.2,0.6,0.4,0.9,0.6C31,18.2,30.7,18,30.4,17.9z"/>
		<path class="st0" d="M29.4,17.3c0.2,0.1,0.4,0.2,0.6,0.3C29.8,17.5,29.6,17.4,29.4,17.3z"/>
		<path class="st0" d="M26.4,16.4c0.1,0,0.2,0,0.3,0.1C26.7,16.4,26.5,16.4,26.4,16.4z"/>
		<path class="st0" d="M23.4,16.4C23.4,16.4,23.4,16.4,23.4,16.4C23.4,16.4,23.4,16.4,23.4,16.4z"/>
		<path class="st0" d="M25.4,16.3c0.1,0,0.2,0,0.2,0C25.6,16.3,25.5,16.3,25.4,16.3z"/>
		<path class="st0" d="M28.5,16.9c0.2,0.1,0.3,0.1,0.5,0.2C28.8,17.1,28.6,17,28.5,16.9z"/>
		<path class="st0" d="M27.5,16.6c0.1,0,0.3,0.1,0.4,0.1C27.7,16.7,27.6,16.6,27.5,16.6z"/>
		<path class="st0" d="M44.8,16.3C44.8,16.3,44.7,16.3,44.8,16.3C44.7,16.3,44.8,16.3,44.8,16.3z"/>
		<path class="st0" d="M47.5,23.6c0,0.2,0,0.4,0,0.6C47.5,23.9,47.5,23.8,47.5,23.6z"/>
		<polygon class="st0" points="55,34 55,34 55,34 		"/>
		<path class="st0" d="M17.3,32c-0.2,0.2-0.3,0.3-0.5,0.5C17,32.3,17.2,32.1,17.3,32z"/>
		<path class="st0" d="M47.5,23c0-0.2,0-0.3,0-0.5C47.5,22.7,47.5,22.9,47.5,23z"/>
		<polygon class="st0" points="16,45.8 16,45.8 16,45.8 		"/>
		<polygon class="st0" points="16.3,20.4 16.3,20.4 16.3,20.4 		"/>
		<path class="st0" d="M45.4,17.1C45.4,17.1,45.4,17,45.4,17.1C45.4,17,45.4,17.1,45.4,17.1z"/>
		<path class="st0" d="M47.4,21.9c0-0.1,0-0.3-0.1-0.4C47.4,21.7,47.4,21.8,47.4,21.9z"/>
		<path class="st0" d="M46,18c0,0,0-0.1-0.1-0.1C45.9,17.9,46,17.9,46,18z"/>
		<path class="st0" d="M47.2,20.9c0-0.1,0-0.2-0.1-0.3C47.1,20.7,47.2,20.8,47.2,20.9z"/>
		<path class="st0" d="M47,26.7c0.1-0.3,0.2-0.7,0.3-1C47.2,26,47.1,26.4,47,26.7z"/>
		<path class="st0" d="M46.5,18.9c0-0.1-0.1-0.1-0.1-0.2C46.4,18.8,46.5,18.8,46.5,18.9z"/>
		<path class="st0" d="M46.9,19.9c0-0.1-0.1-0.2-0.1-0.3C46.8,19.7,46.9,19.8,46.9,19.9z"/>
		<path class="st0" d="M45.8,44.2c0.2,0,0.4-0.1,0.7-0.1C46.2,44.1,46,44.2,45.8,44.2z"/>
		<path class="st0" d="M44.3,44.3c0.4,0,0.7,0,1.1,0C45,44.3,44.7,44.3,44.3,44.3z"/>
		<path class="st0" d="M49,43.2c0.1-0.1,0.2-0.1,0.3-0.2C49.3,43.1,49.1,43.2,49,43.2z"/>
		<path class="st0" d="M50,42.7c0.1,0,0.2-0.1,0.2-0.1C50.2,42.6,50.1,42.6,50,42.7z"/>
		<path class="st0" d="M30.4,52c0.1,0,0.1,0.1,0.2,0.2C30.5,52.1,30.5,52.1,30.4,52z"/>
		<path class="st0" d="M31.3,52.7c0,0,0.1,0.1,0.1,0.1C31.4,52.7,31.4,52.7,31.3,52.7z"/>
		<path class="st0" d="M32.3,53.2C32.3,53.2,32.3,53.2,32.3,53.2C32.3,53.2,32.3,53.2,32.3,53.2z"/>
		<path class="st0" d="M51.7,41.4C51.7,41.3,51.8,41.3,51.7,41.4C51.8,41.3,51.7,41.3,51.7,41.4z"/>
		<path class="st0" d="M33.5,1L5.4,17.2v32.5L33.5,66l28.1-16.2V17.2L33.5,1z M55,34C55,34,55,34,55,34c0,0.3,0,0.5,0,0.8
			c-0.2,4.5-1.8,8.9-4.9,12.6c-2.5,3-5.6,5.1-9.1,6.3l-0.4,0.1c-0.1,0-0.1,0-0.2,0c-6.8,2.2-14.7,1-20.7-4c-1.3-1.1-2.4-2.2-3.3-3.5
			L16.2,46c-0.1-0.1-0.1-0.2-0.2-0.2c0,0,0,0,0,0c-0.2-0.2-0.3-0.5-0.5-0.7c-4.8-7.4-4.8-17.2,0.6-24.4l0.1-0.1c0,0,0.1-0.1,0.1-0.1
			c0.2-0.3,0.4-0.5,0.6-0.8c5.6-6.7,14.6-9.1,22.6-6.6l0.5,0.2c0.4,0.1,0.8,0.3,1.1,0.4c2.1,0.8,4.2,2,6.1,3.6
			c5.1,4.2,7.7,10.3,7.8,16.3l0,0.1C55,33.7,55,33.9,55,34z"/>
		<path class="st0" d="M52.5,40.6C52.5,40.6,52.4,40.6,52.5,40.6C52.4,40.6,52.5,40.6,52.5,40.6z"/>
		<path class="st0" d="M51,42c-0.1,0-0.1,0.1-0.2,0.1C50.9,42,51,42,51,42z"/>
		<path class="st0" d="M53.1,39.8C53.1,39.8,53.1,39.8,53.1,39.8C53.1,39.8,53.1,39.8,53.1,39.8z"/>
		<path class="st0" d="M26.9,47.1c0.1,0.3,0.3,0.7,0.4,1C27.2,47.8,27,47.4,26.9,47.1z"/>
		<path class="st0" d="M14.2,37.9C14.2,37.9,14.3,37.8,14.2,37.9C14.3,37.8,14.2,37.9,14.2,37.9z"/>
		<path class="st0" d="M14.5,36.9c0-0.1,0-0.1,0.1-0.2C14.5,36.8,14.5,36.9,14.5,36.9z"/>
		<path class="st0" d="M14.1,38.9C14.1,38.9,14.1,38.9,14.1,38.9C14.1,38.9,14.1,38.9,14.1,38.9z"/>
		<path class="st0" d="M29.6,51.3c0.1,0.1,0.1,0.2,0.2,0.2C29.7,51.4,29.7,51.3,29.6,51.3z"/>
		<path class="st0" d="M14.8,35.9c0-0.1,0.1-0.2,0.1-0.2C14.8,35.8,14.8,35.9,14.8,35.9z"/>
		<path class="st0" d="M15.1,35c0-0.1,0.1-0.2,0.2-0.3C15.3,34.8,15.2,34.9,15.1,35z"/>
		<path class="st0" d="M16.2,33.3c0.1-0.1,0.2-0.3,0.3-0.4C16.4,33,16.3,33.1,16.2,33.3z"/>
		<path class="st0" d="M27.5,48.5c0.1,0.2,0.2,0.4,0.3,0.6C27.7,48.9,27.6,48.7,27.5,48.5z"/>
		<path class="st0" d="M28.1,49.5c0.1,0.1,0.2,0.3,0.3,0.4C28.3,49.8,28.2,49.6,28.1,49.5z"/>
		<path class="st0" d="M18.5,31c-0.3,0.2-0.6,0.4-0.8,0.7C17.9,31.5,18.2,31.3,18.5,31z"/>
		<path class="st0" d="M28.8,50.4c0.1,0.1,0.2,0.2,0.3,0.3C29,50.7,28.9,50.5,28.8,50.4z"/>
		<path class="st0" d="M15.6,34.1c0.1-0.1,0.2-0.2,0.2-0.4C15.8,33.9,15.7,34,15.6,34.1z"/>
	</g>
</g>
<g id="Layer_2">

		<g id="Combined-Shape-Copy-10" transform="translate(14.221930, 21.605855) rotate(-71.000000) translate(-14.221930, -21.605855) ">
		<g>
			<path id="path-16" class="st0" d="M15.7,23.2l0.2,0.1c5.7,1.9,8.8,7.9,7,13.6C21,42.4,15,45.5,9.3,43.6c0.5-0.7,0.9-1.4,1.3-2.2
				c3.3,0.7,6.8-0.4,9.1-3.2c3.4-4,2.8-10-1.3-13.4C17.6,24.1,16.7,23.6,15.7,23.2z"/>
		</g>
		<g>
			<path id="path-16_00000019651494843871173450000011169518164619815582_" class="st1" d="M15.7,23.2l0.2,0.1
				c5.7,1.9,8.8,7.9,7,13.6C21,42.4,15,45.5,9.3,43.6c0.5-0.7,0.9-1.4,1.3-2.2c3.3,0.7,6.8-0.4,9.1-3.2c3.4-4,2.8-10-1.3-13.4
				C17.6,24.1,16.7,23.6,15.7,23.2z"/>
		</g>
	</g>

		<g id="Combined-Shape-Copy-9" transform="translate(19.330169, 34.673473) rotate(217.000000) translate(-19.330169, -34.673473) ">
		<g>
			<path id="path-15" class="st0" d="M15.1,23.7l0.2,0.1c5.7,1.9,8.8,7.9,7,13.6C20.5,43,14.5,46,8.8,44.1c0.5-0.7,0.9-1.4,1.3-2.2
				c3.3,0.7,6.8-0.4,9.1-3.2c3.4-4,2.8-10-1.3-13.4C17.1,24.7,16.1,24.1,15.1,23.7z"/>
		</g>
		<g>
			<path id="path-15_00000168806088780146132830000016182374790748041617_" class="st2" d="M15.1,23.7l0.2,0.1
				c5.7,1.9,8.8,7.9,7,13.6C20.5,43,14.5,46,8.8,44.1c0.5-0.7,0.9-1.4,1.3-2.2c3.3,0.7,6.8-0.4,9.1-3.2c3.4-4,2.8-10-1.3-13.4
				C17.1,24.7,16.1,24.1,15.1,23.7z"/>
		</g>
	</g>

		<g id="Combined-Shape-Copy-8" transform="translate(33.811317, 33.641001) rotate(143.000000) translate(-33.811317, -33.641001) ">
		<g>
			<path id="path-13" class="st0" d="M40.3,13.5l0.2,0.1c5.7,1.9,8.8,7.9,7,13.6c-1.8,5.6-7.8,8.7-13.5,6.8c0.5-0.7,0.9-1.4,1.3-2.2
				c3.3,0.7,6.8-0.4,9.1-3.2c3.4-4,2.8-10-1.3-13.4C42.3,14.4,41.3,13.8,40.3,13.5z"/>
		</g>
		<g>
			<path id="path-13_00000028298482354107683140000008139317065999306896_" class="st0" d="M40.3,13.5l0.2,0.1
				c5.7,1.9,8.8,7.9,7,13.6c-1.8,5.6-7.8,8.7-13.5,6.8c0.5-0.7,0.9-1.4,1.3-2.2c3.3,0.7,6.8-0.4,9.1-3.2c3.4-4,2.8-10-1.3-13.4
				C42.3,14.4,41.3,13.8,40.3,13.5z"/>
		</g>
	</g>
	<g id="Combined-Shape-Copy-7" transform="translate(37.055527, 20.178799) rotate(72.000000) translate(-37.055527, -20.178799) ">
		<g>
			<path id="path-11" class="st0" d="M55.1,7.2l0.2,0.1c5.7,1.9,8.8,7.9,7,13.6c-1.8,5.6-7.8,8.7-13.5,6.8c0.5-0.7,0.9-1.4,1.3-2.2
				c3.3,0.7,6.8-0.4,9.1-3.2c3.4-4,2.8-10-1.3-13.4C57,8.1,56.1,7.6,55.1,7.2z"/>
		</g>
		<g>
			<path id="path-11_00000099652872522904872590000012284264795041655427_" class="st3" d="M55.1,7.2l0.2,0.1
				c5.7,1.9,8.8,7.9,7,13.6c-1.8,5.6-7.8,8.7-13.5,6.8c0.5-0.7,0.9-1.4,1.3-2.2c3.3,0.7,6.8-0.4,9.1-3.2c3.4-4,2.8-10-1.3-13.4
				C57,8.1,56.1,7.6,55.1,7.2z"/>
		</g>
	</g>
	<g id="Combined-Shape_00000050644230706884141510000004093849516912836777_">
		<g>
			<path id="path-9" class="st0" d="M39.9,13.1l0.2,0.1c5.7,1.9,8.8,7.9,7,13.6s-7.8,8.7-13.5,6.8c0.5-0.7,0.9-1.4,1.3-2.2
				c3.3,0.7,6.8-0.4,9.1-3.2c3.4-4,2.8-10-1.3-13.4C41.8,14,40.9,13.5,39.9,13.1z"/>
		</g>
		<g>
			<path id="path-9_00000081640929916715792780000012009236316699140534_" class="st4" d="M39.9,13.1l0.2,0.1
				c5.7,1.9,8.8,7.9,7,13.6s-7.8,8.7-13.5,6.8c0.5-0.7,0.9-1.4,1.3-2.2c3.3,0.7,6.8-0.4,9.1-3.2c3.4-4,2.8-10-1.3-13.4
				C41.8,14,40.9,13.5,39.9,13.1z"/>
		</g>
	</g>
	<g id="Path-6-Copy-2">
		<g>
			<path id="path-17" class="st5" d="M31.8,38.1h3.9c3.7,0,6.7-2.9,6.7-6.5s-3-6.5-6.7-6.5h-5.7c-2.1,0-3.9,1.7-3.9,3.8v14.6
				L31.8,38.1z"/>
		</g>
		<g>
			<path id="path-17_00000109714511528630406100000007226835851325650604_" class="st5" d="M31.8,38.1h3.9c3.7,0,6.7-2.9,6.7-6.5
				s-3-6.5-6.7-6.5h-5.7c-2.1,0-3.9,1.7-3.9,3.8v14.6L31.8,38.1z"/>
		</g>
	</g>
</g>
</svg>
